<?xml version="1.0" standalone="no"?><!-- Generator: Gravit.io --><svg xmlns="http://www.w3.org/2000/svg" xmlns:xlink="http://www.w3.org/1999/xlink" style="isolation:isolate" viewBox="0 0 500 500" width="500" height="500"><defs><clipPath id="_clipPath_RjYlRXKZB0WyRHA1SgCTZrzrqgIPJetB"><rect width="500" height="500"/></clipPath></defs><g clip-path="url(#_clipPath_RjYlRXKZB0WyRHA1SgCTZrzrqgIPJetB)"><g transform="matrix(0.999,-0.044,0.044,0.999,138.492,196.16)"><text transform="matrix(1,0,0,1,44.092,86.76)" style="font-family:'Advent Pro';font-weight:400;font-size:120px;font-style:normal;fill:#4a0606;stroke:none;">A O</text></g><g transform="matrix(0.924,0.382,-0.382,0.924,309.561,105.641)"><text transform="matrix(1,0,0,1,14.481,22.172)" style="font-family:'Advent Pro';font-weight:400;font-size:23px;font-style:normal;fill:#000000;stroke:none;">Science</text></g><g transform="matrix(0.871,-0.491,0.491,0.871,314.012,374.398)"><text transform="matrix(1,0,0,1,8.944,20.244)" style="font-family:'Advent Pro';font-weight:400;font-size:21px;font-style:normal;fill:#000000;stroke:none;">Imagination</text></g><g transform="matrix(0.913,0.408,-0.408,0.913,83.472,318.693)"><text transform="matrix(1,0,0,1,18.411,21.208)" style="font-family:'Advent Pro';font-weight:400;font-size:22px;font-style:normal;fill:#000000;stroke:none;">Humanities</text></g><g transform="matrix(0.923,-0.385,0.385,0.923,76.996,151.14)"><text transform="matrix(1,0,0,1,31.253,22.172)" style="font-family:'Advent Pro';font-weight:400;font-size:23px;font-style:normal;fill:#000000;stroke:none;">Art</text></g><rect x="115.711" y="123.643" width="255.376" height="243.497" transform="matrix(0.408,-0.913,0.918,0.397,-81.096,370.314)" fill="none" vector-effect="non-scaling-stroke" stroke-width="1" stroke="rgb(74,6,6)" stroke-linejoin="miter" stroke-linecap="square" stroke-miterlimit="2"/><rect x="107.163" y="150.547" width="275.895" height="202.164" transform="matrix(-0.503,-0.864,0.877,-0.481,147.784,584.577)" fill="none" vector-effect="non-scaling-stroke" stroke-width="2" stroke="rgb(74,6,6)" stroke-linejoin="miter" stroke-linecap="square" stroke-miterlimit="2" style="mix-blend-mode:linear_burn;"/></g></svg>